<?xml version="1.0" encoding="utf-8"?>
<!-- Generator: Adobe Illustrator 16.0.0, SVG Export Plug-In . SVG Version: 6.00 Build 0)  -->
<!DOCTYPE svg PUBLIC "-//W3C//DTD SVG 1.1//EN" "http://www.w3.org/Graphics/SVG/1.1/DTD/svg11.dtd">
<svg version="1.1" id="Layer_1" xmlns="http://www.w3.org/2000/svg" xmlns:xlink="http://www.w3.org/1999/xlink" x="0px" y="0px"
	 width="1200px" height="800px" viewBox="0 0 1200 800" enable-background="new 0 0 1200 800" xml:space="preserve">
<g>
	<circle fill="#366988" cx="601" cy="401" r="400"/>
	<g>
		<g>
			<path fill="#FFFFFF" d="M849.894,309.941c-2.358-17.722-2.688-48.244,13.772-58.493c0.292-0.188,0.513-0.459,0.771-0.692
				c13.457-4.304,22.771-10.345,15.458-18.473l-198.512-59.814l-321.438,44.69c0,0-36.809,5.261-33.521,62.447
				c1.785,31.125,11.547,46.411,20.084,53.934l-26.377,7.949c-7.321,8.129,1.99,14.17,15.45,18.468
				c0.256,0.24,0.472,0.51,0.771,0.697c16.45,10.258,16.133,40.776,13.767,58.501c-59.096,16.782-37.882,22.25-37.882,22.25
				l12.963,3.137c-9.118,8.24-18.174,23.864-16.477,53.498c3.289,57.175,33.524,61.123,33.524,61.123l210.346,68.368l317.495-76.9
				c0,0,21.217-5.478-37.892-22.261c-2.378-17.696-2.708-48.211,13.779-58.496c0.303-0.181,0.523-0.459,0.771-0.687
				c13.456-4.306,22.763-10.34,15.45-18.469l-13.803-4.169c9.206-5.549,23.028-20.052,25.196-57.729
				c1.492-25.916-5.267-41.094-13.092-50.029l27.275-6.601C887.778,332.2,908.995,326.724,849.894,309.941z M584.331,309.209
				l53.392-10.973l180.427-37.078l26.882-5.528c-8.591,15.72-8.23,37.234-6.807,51.063c0.31,3.128,0.67,5.984,1.016,8.155
				l-29.422,7.315l-227.732,56.654L584.331,309.209z M354.987,364.853l26.878,5.529l173.277,35.619l15.138,3.103l0,0l0,0
				l45.396,9.327l2.239,69.612l-234.06-58.235l-23.075-5.732c0.339-2.175,0.697-5.029,1.022-8.166
				C363.216,402.094,363.583,380.573,354.987,364.853z M344.545,276.854c-0.325-15.211,2.385-26.212,7.864-31.803
				c3.486-3.57,7.602-4.313,10.422-4.313c1.492,0,2.565,0.208,2.638,0.208l138.499,45.151l69.1,22.529l-2.268,70.094l-193.85-54.348
				l-10.23-2.865c-0.376-0.106-0.886-0.18-1.279-0.196C364.643,321.254,345.478,319.49,344.545,276.854z M553.095,597.163
				l-204.076-57.212c-0.377-0.112-0.882-0.184-1.275-0.204c-0.812-0.055-19.986-1.814-20.914-44.439
				c-0.331-15.229,2.394-26.223,7.862-31.818c3.496-3.568,7.611-4.313,10.428-4.313c1.495,0,2.565,0.2,2.643,0.2c0,0,0.008,0,0,0
				l207.584,67.692L553.095,597.163z M820.508,525.126c0.322,3.14,0.68,5.99,1.029,8.165l-257.162,63.971l2.248-69.608
				l54.979-11.302l8.12,1.964l30.433-9.892l140.28-28.825l26.893-5.531C818.727,489.786,819.084,511.31,820.508,525.126z
				 M834.674,430.524c-0.469,0.011-0.938,0.072-1.376,0.211l-19.396,5.43l-184.675,51.783l-2.259-70.095l60.591-19.761
				l146.71-47.846c0.021-0.009,7.717-1.719,13.367,4.027c5.472,5.593,8.187,16.593,7.863,31.804
				C854.545,428.7,835.37,430.47,834.674,430.524z"/>
		</g>
	</g>
</g>
</svg>
